<svg xmlns="http://www.w3.org/2000/svg" version="1.1" xmlns:xlink="http://www.w3.org/1999/xlink" xmlns:svgjs="http://svgjs.dev/svgjs" width="1440" height="560" preserveAspectRatio="none" viewBox="0 0 1440 560"><g mask="url(&quot;#SvgjsMask1063&quot;)" fill="none"><rect width="1440" height="560" x="0" y="0" fill="rgba(0, 83, 178, 1)"></rect><path d="M0,712.549C129.944,691.563,215.78,571.215,304.763,474.221C375.249,397.389,404.423,298.172,460.687,210.389C528.923,103.927,685.426,29.166,670.499,-96.403C655.67,-221.155,477.02,-247.108,394.993,-342.263C312.646,-437.79,305.095,-597.358,191.473,-652.098C76.544,-707.467,-59.24,-654.516,-182.139,-620.309C-306.576,-585.674,-450.44,-560.052,-523.049,-453.225C-594.79,-347.674,-549.314,-206.7,-550.003,-79.079C-550.592,29.96,-554.565,135.134,-526.794,240.579C-494.267,364.082,-470.474,498.836,-375.352,584.059C-274.82,674.129,-133.252,734.069,0,712.549" fill="#00428e"></path><path d="M1440 1141.944C1549.577 1142.3429999999998 1657.6970000000001 1099.895 1741.9189999999999 1029.795 1821.174 963.829 1855.638 862.869 1891.467 766.178 1924.941 675.843 1935.444 583.766 1942.79 487.71 1952.164 365.14099999999996 2003.9859999999999 231.60700000000003 1940.396 126.40499999999997 1875.9470000000001 19.78200000000004 1740.66-23.177999999999997 1618.673-48.50400000000002 1502.542-72.61400000000003 1386.035-44.76099999999997 1271.935-12.375999999999976 1156.891 20.275999999999954 1037.067 52.75200000000001 955.1030000000001 139.834 871.585 228.567 808.373 348.973 817.449 470.491 826.147 586.955 942.995 659.172 1001.442 760.283 1052.6689999999999 848.902 1062.275 960.406 1139.49 1027.603 1222.009 1099.4160000000002 1330.609 1141.546 1440 1141.944" fill="#0064d6"></path></g><defs><mask id="SvgjsMask1063"><rect width="1440" height="560" fill="#ffffff"></rect></mask></defs></svg>